<svg width="28" height="28" viewBox="0 0 28 28" fill="none" xmlns="http://www.w3.org/2000/svg">
<path d="M20.9075 6.39494L16.9338 0.823685L2.3225 12.4962L1.5125 12.4874V12.4999H0.875V27.4999H27.125V12.4999H25.9225L23.53 5.50118L20.9075 6.39494ZM23.2812 12.4999H10.7463L20.0825 9.31743L21.985 8.70868L23.2812 12.4999ZM18.4375 7.23743L8.8 10.5224L16.4325 4.42493L18.4375 7.23743ZM3.375 22.7112V17.2862C3.90237 17.0993 4.38138 16.7971 4.77712 16.4016C5.17285 16.0061 5.47533 15.5272 5.6625 14.9999H22.3375C22.5246 15.5274 22.827 16.0064 23.2228 16.4022C23.6185 16.7979 24.0975 17.1003 24.625 17.2874V22.7124C24.0975 22.8995 23.6185 23.202 23.2228 23.5977C22.827 23.9934 22.5246 24.4725 22.3375 24.9999H5.665C5.47773 24.472 5.17496 23.9926 4.77877 23.5966C4.38259 23.2007 3.903 22.8982 3.375 22.7112Z" fill="#637381"/>
</svg>
