<svg width="30" height="30" viewBox="0 0 30 30" fill="none" xmlns="http://www.w3.org/2000/svg">
<path d="M15.0001 15.625C13.8397 15.625 12.7269 16.0859 11.9065 16.9064C11.086 17.7268 10.6251 18.8396 10.6251 20C10.6251 21.1603 11.086 22.2731 11.9065 23.0935C12.7269 23.914 13.8397 24.375 15.0001 24.375C16.1604 24.375 17.2732 23.914 18.0937 23.0935C18.9141 22.2731 19.3751 21.1603 19.3751 20C19.3751 18.8396 18.9141 17.7268 18.0937 16.9064C17.2732 16.0859 16.1604 15.625 15.0001 15.625ZM13.1251 20C13.1251 19.5027 13.3226 19.0258 13.6742 18.6741C14.0259 18.3225 14.5028 18.125 15.0001 18.125C15.4973 18.125 15.9743 18.3225 16.3259 18.6741C16.6775 19.0258 16.8751 19.5027 16.8751 20C16.8751 20.4972 16.6775 20.9741 16.3259 21.3258C15.9743 21.6774 15.4973 21.875 15.0001 21.875C14.5028 21.875 14.0259 21.6774 13.6742 21.3258C13.3226 20.9741 13.1251 20.4972 13.1251 20Z" fill="#637381"/>
<path d="M21.9075 6.39494L17.9338 0.823685L3.3225 12.4962L2.5125 12.4874V12.4999H1.875V27.4999H28.125V12.4999H26.9225L24.53 5.50118L21.9075 6.39494ZM24.2812 12.4999H11.7463L21.0825 9.31743L22.985 8.70868L24.2812 12.4999ZM19.4375 7.23743L9.8 10.5224L17.4325 4.42493L19.4375 7.23743ZM4.375 22.7112V17.2862C4.90237 17.0993 5.38138 16.7971 5.77712 16.4016C6.17285 16.0061 6.47533 15.5272 6.6625 14.9999H23.3375C23.5246 15.5274 23.827 16.0064 24.2228 16.4022C24.6185 16.7979 25.0975 17.1003 25.625 17.2874V22.7124C25.0975 22.8995 24.6185 23.202 24.2228 23.5977C23.827 23.9934 23.5246 24.4725 23.3375 24.9999H6.665C6.47773 24.472 6.17496 23.9926 5.77877 23.5966C5.38259 23.2007 4.903 22.8982 4.375 22.7112Z" fill="#637381"/>
</svg>
