<svg width="44" height="44" viewBox="0 0 44 44" fill="none" xmlns="http://www.w3.org/2000/svg">
<path d="M8.79999 32.2667V28.4167C8.79999 27.6375 8.98699 26.9211 9.36099 26.2675C9.73499 25.614 10.252 25.1158 10.912 24.7729C12.232 24.0854 13.6013 23.5583 15.0198 23.1917C16.4384 22.825 17.8851 22.6417 19.36 22.6417C19.91 22.6417 20.46 22.682 21.01 22.7627C21.56 22.8433 22.11 22.9405 22.66 23.0542V25.2198C21.67 25.724 20.8723 26.3885 20.2668 27.2135C19.6614 28.0385 19.3591 29.1156 19.36 30.4448V32.2667H8.79999ZM22 32.2667V30.3417C22 29.7917 22.1377 29.2815 22.4131 28.8113C22.6886 28.341 23.0789 28.0033 23.584 27.7979C24.376 27.4542 25.1957 27.1961 26.0431 27.0238C26.8906 26.8515 27.7429 26.7657 28.6 26.7667C29.458 26.7667 30.3107 26.8528 31.1581 27.0252C32.0056 27.1975 32.8249 27.4551 33.616 27.7979C34.122 28.0042 34.5127 28.3424 34.7881 28.8127C35.0636 29.2829 35.2009 29.7926 35.2 30.3417V32.2667H22ZM28.6 25.3917C27.676 25.3917 26.895 25.0594 26.257 24.3948C25.619 23.7302 25.3 22.9167 25.3 21.9542C25.3 20.9917 25.619 20.1781 26.257 19.5135C26.895 18.849 27.676 18.5167 28.6 18.5167C29.524 18.5167 30.305 18.849 30.943 19.5135C31.581 20.1781 31.9 20.9917 31.9 21.9542C31.9 22.9167 31.581 23.7302 30.943 24.3948C30.305 25.0594 29.524 25.3917 28.6 25.3917ZM19.36 21.2667C17.908 21.2667 16.665 20.7281 15.631 19.651C14.597 18.574 14.08 17.2792 14.08 15.7667C14.08 14.2542 14.597 12.9594 15.631 11.8823C16.665 10.8052 17.908 10.2667 19.36 10.2667C20.812 10.2667 22.055 10.8052 23.089 11.8823C24.123 12.9594 24.64 14.2542 24.64 15.7667C24.64 17.2792 24.123 18.574 23.089 19.651C22.055 20.7281 20.812 21.2667 19.36 21.2667Z" fill="#637381"/>
</svg>
