<svg width="30" height="25" viewBox="0 0 30 25" fill="none" xmlns="http://www.w3.org/2000/svg">
<path d="M3.28842 24.3082H26.6063C28.7375 21.654 29.8977 18.3513 29.8947 14.9474C29.8947 6.70763 23.2058 0 14.9474 0C6.68895 0 0 6.70763 0 14.9474C0 18.4974 1.23316 21.7297 3.28842 24.3082ZM13.0789 3.73684C13.0789 2.70921 13.9197 1.86842 14.9474 1.86842C15.975 1.86842 16.8158 2.70921 16.8158 3.73684C16.8158 4.78316 15.975 5.60526 14.9474 5.60526C13.9197 5.60526 13.0789 4.78316 13.0789 3.73684ZM3.73684 7.47368C3.73684 6.44605 4.57763 5.60526 5.60526 5.60526C6.6329 5.60526 7.47368 6.44605 7.47368 7.47368C7.47368 8.52 6.6329 9.34211 5.60526 9.34211C4.57763 9.34211 3.73684 8.52 3.73684 7.47368ZM12.1821 13.8263C13.7516 12.2755 24.3455 7.28684 24.3455 7.28684C24.3455 7.28684 19.3755 17.8995 17.8247 19.4503C16.2553 21.0197 13.7516 21.0197 12.1821 19.4503C11.4371 18.7041 11.0186 17.6927 11.0186 16.6383C11.0186 15.5838 11.4371 14.5725 12.1821 13.8263ZM1.86842 16.8158C1.86842 15.7882 2.70921 14.9474 3.73684 14.9474C4.76447 14.9474 5.60526 15.7882 5.60526 16.8158C5.60526 17.8621 4.76447 18.6842 3.73684 18.6842C2.70921 18.6842 1.86842 17.8621 1.86842 16.8158ZM13.0789 16.8158C13.0789 15.7882 13.9197 14.9474 14.9474 14.9474C15.975 14.9474 16.8158 15.7882 16.8158 16.8158C16.8158 17.8621 15.975 18.6842 14.9474 18.6842C13.9197 18.6842 13.0789 17.8621 13.0789 16.8158ZM24.2895 16.8158C24.2895 15.7882 25.1303 14.9474 26.1579 14.9474C27.1855 14.9474 28.0263 15.7882 28.0263 16.8158C28.0263 17.8621 27.1855 18.6842 26.1579 18.6842C25.1303 18.6842 24.2895 17.8621 24.2895 16.8158Z" fill="#637381"/>
</svg>
