<svg width="24" height="24" viewBox="0 0 24 24" fill="none" xmlns="http://www.w3.org/2000/svg">
<path d="M6.4 10.5H11.2V24H6.4V10.5ZM12.8 13.5H17.6V24H12.8V13.5ZM0 16.5H4.8V24H0V16.5ZM19.2 7.5H24V24H19.2V7.5ZM17.3625 7.27734C17.5208 7.59766 17.6 7.92188 17.6 8.25C17.6 8.5625 17.5375 8.85547 17.4125 9.12891C17.2875 9.40234 17.1167 9.64062 16.9 9.84375C16.6833 10.0469 16.4292 10.207 16.1375 10.3242C15.8458 10.4414 15.5333 10.5 15.2 10.5C14.8667 10.5 14.5542 10.4414 14.2625 10.3242C13.9708 10.207 13.7167 10.0469 13.5 9.84375C13.2833 9.64062 13.1125 9.40234 12.9875 9.12891C12.8625 8.85547 12.8 8.5625 12.8 8.25V8.10938C12.8 8.0625 12.8042 8.01562 12.8125 7.96875L10.4625 6.86719C10.2458 7.07031 9.99167 7.22656 9.7 7.33594C9.40833 7.44531 9.10833 7.5 8.8 7.5C8.45 7.5 8.10417 7.42578 7.7625 7.27734L4.5625 10.2773C4.72083 10.5977 4.8 10.9219 4.8 11.25C4.8 11.5625 4.7375 11.8555 4.6125 12.1289C4.4875 12.4023 4.31667 12.6406 4.1 12.8438C3.88333 13.0469 3.62917 13.207 3.3375 13.3242C3.04583 13.4414 2.73333 13.5 2.4 13.5C2.06667 13.5 1.75417 13.4414 1.4625 13.3242C1.17083 13.207 0.916667 13.0469 0.7 12.8438C0.483333 12.6406 0.3125 12.4023 0.1875 12.1289C0.0625 11.8555 0 11.5625 0 11.25C0 10.9375 0.0625 10.6445 0.1875 10.3711C0.3125 10.0977 0.483333 9.85938 0.7 9.65625C0.916667 9.45312 1.17083 9.29297 1.4625 9.17578C1.75417 9.05859 2.06667 9 2.4 9C2.75 9 3.09583 9.07422 3.4375 9.22266L6.6375 6.22266C6.47917 5.90234 6.4 5.57812 6.4 5.25C6.4 4.9375 6.4625 4.64453 6.5875 4.37109C6.7125 4.09766 6.88333 3.85938 7.1 3.65625C7.31667 3.45312 7.57083 3.29297 7.8625 3.17578C8.15417 3.05859 8.46667 3 8.8 3C9.13333 3 9.44583 3.05859 9.7375 3.17578C10.0292 3.29297 10.2833 3.45312 10.5 3.65625C10.7167 3.85938 10.8875 4.09766 11.0125 4.37109C11.1375 4.64453 11.2 4.9375 11.2 5.25V5.39062C11.2 5.4375 11.1958 5.48438 11.1875 5.53125L13.5375 6.63281C13.7542 6.42969 14.0083 6.27344 14.3 6.16406C14.5917 6.05469 14.8917 6 15.2 6C15.55 6 15.8958 6.07422 16.2375 6.22266L19.4375 3.22266C19.2792 2.90234 19.2 2.57812 19.2 2.25C19.2 1.9375 19.2625 1.64453 19.3875 1.37109C19.5125 1.09766 19.6833 0.859375 19.9 0.65625C20.1167 0.453125 20.3708 0.292969 20.6625 0.175781C20.9542 0.0585938 21.2667 0 21.6 0C21.9333 0 22.2458 0.0585938 22.5375 0.175781C22.8292 0.292969 23.0833 0.453125 23.3 0.65625C23.5167 0.859375 23.6875 1.09766 23.8125 1.37109C23.9375 1.64453 24 1.9375 24 2.25C24 2.5625 23.9375 2.85547 23.8125 3.12891C23.6875 3.40234 23.5167 3.64062 23.3 3.84375C23.0833 4.04688 22.8292 4.20703 22.5375 4.32422C22.2458 4.44141 21.9333 4.5 21.6 4.5C21.25 4.5 20.9042 4.42578 20.5625 4.27734L17.3625 7.27734ZM2.4 12C2.61667 12 2.80417 11.9258 2.9625 11.7773C3.12083 11.6289 3.2 11.4531 3.2 11.25C3.2 11.0469 3.12083 10.8711 2.9625 10.7227C2.80417 10.5742 2.61667 10.5 2.4 10.5C2.18333 10.5 1.99583 10.5742 1.8375 10.7227C1.67917 10.8711 1.6 11.0469 1.6 11.25C1.6 11.4531 1.67917 11.6289 1.8375 11.7773C1.99583 11.9258 2.18333 12 2.4 12ZM21.6 1.5C21.3833 1.5 21.1958 1.57422 21.0375 1.72266C20.8792 1.87109 20.8 2.04688 20.8 2.25C20.8 2.45312 20.8792 2.62891 21.0375 2.77734C21.1958 2.92578 21.3833 3 21.6 3C21.8167 3 22.0042 2.92578 22.1625 2.77734C22.3208 2.62891 22.4 2.45312 22.4 2.25C22.4 2.04688 22.3208 1.87109 22.1625 1.72266C22.0042 1.57422 21.8167 1.5 21.6 1.5ZM8.8 6C9.01667 6 9.20417 5.92578 9.3625 5.77734C9.52083 5.62891 9.6 5.45312 9.6 5.25C9.6 5.04688 9.52083 4.87109 9.3625 4.72266C9.20417 4.57422 9.01667 4.5 8.8 4.5C8.58333 4.5 8.39583 4.57422 8.2375 4.72266C8.07917 4.87109 8 5.04688 8 5.25C8 5.45312 8.07917 5.62891 8.2375 5.77734C8.39583 5.92578 8.58333 6 8.8 6ZM15.2 9C15.4167 9 15.6042 8.92578 15.7625 8.77734C15.9208 8.62891 16 8.45312 16 8.25C16 8.04688 15.9208 7.87109 15.7625 7.72266C15.6042 7.57422 15.4167 7.5 15.2 7.5C14.9833 7.5 14.7958 7.57422 14.6375 7.72266C14.4792 7.87109 14.4 8.04688 14.4 8.25C14.4 8.45312 14.4792 8.62891 14.6375 8.77734C14.7958 8.92578 14.9833 9 15.2 9Z" fill="#637381"/>
</svg>
