<svg width="26" height="27" viewBox="0 0 26 27" fill="none" xmlns="http://www.w3.org/2000/svg">
<g id="majesticons:box" clip-path="url(#clip0_30_56)" filter="url(#filter0_d_30_56)">
<g id="Vector" filter="url(#filter1_d_30_56)">
<path fill-rule="evenodd" clip-rule="evenodd" d="M12.6807 7.66722C12.7763 7.61219 12.8869 7.58301 12.9997 7.58301C13.1125 7.58301 13.223 7.61219 13.3187 7.66722L17.4738 10.0578L12.9997 12.4806L8.52551 10.0578L12.6807 7.66722ZM7.58782 10.8357C7.58455 10.8594 7.58294 10.8832 7.58301 10.9071V15.3393C7.58301 15.4333 7.60897 15.5257 7.65846 15.6079C7.70794 15.6901 7.77932 15.7593 7.86588 15.8091L12.3978 18.4163V13.4401L7.58782 10.8357ZM13.6015 18.4163L18.1335 15.8091C18.22 15.7593 18.2914 15.6901 18.3409 15.6079C18.3904 15.5257 18.4163 15.4333 18.4163 15.3393V10.9071C18.4163 10.8833 18.4145 10.8589 18.4115 10.8357L13.6015 13.4396V18.4163Z" fill="#B90651"/>
</g>
</g>
<defs>
<filter id="filter0_d_30_56" x="-4" y="0" width="34" height="34" filterUnits="userSpaceOnUse" color-interpolation-filters="sRGB">
<feFlood flood-opacity="0" result="BackgroundImageFix"/>
<feColorMatrix in="SourceAlpha" type="matrix" values="0 0 0 0 0 0 0 0 0 0 0 0 0 0 0 0 0 0 127 0" result="hardAlpha"/>
<feOffset dy="4"/>
<feGaussianBlur stdDeviation="2"/>
<feComposite in2="hardAlpha" operator="out"/>
<feColorMatrix type="matrix" values="0 0 0 0 0 0 0 0 0 0 0 0 0 0 0 0 0 0 0.15 0"/>
<feBlend mode="normal" in2="BackgroundImageFix" result="effect1_dropShadow_30_56"/>
<feBlend mode="normal" in="SourceGraphic" in2="effect1_dropShadow_30_56" result="shape"/>
</filter>
<filter id="filter1_d_30_56" x="3.58301" y="7.58301" width="18.833" height="18.833" filterUnits="userSpaceOnUse" color-interpolation-filters="sRGB">
<feFlood flood-opacity="0" result="BackgroundImageFix"/>
<feColorMatrix in="SourceAlpha" type="matrix" values="0 0 0 0 0 0 0 0 0 0 0 0 0 0 0 0 0 0 127 0" result="hardAlpha"/>
<feOffset dy="4"/>
<feGaussianBlur stdDeviation="2"/>
<feComposite in2="hardAlpha" operator="out"/>
<feColorMatrix type="matrix" values="0 0 0 0 0 0 0 0 0 0 0 0 0 0 0 0 0 0 0.25 0"/>
<feBlend mode="normal" in2="BackgroundImageFix" result="effect1_dropShadow_30_56"/>
<feBlend mode="normal" in="SourceGraphic" in2="effect1_dropShadow_30_56" result="shape"/>
</filter>
<clipPath id="clip0_30_56">
<rect width="26" height="26" fill="white"/>
</clipPath>
</defs>
</svg>
