<svg width="30" height="30" viewBox="0 0 30 30" fill="none" xmlns="http://www.w3.org/2000/svg">
<rect width="30" height="30" rx="3.75" fill="#BDE7CE"/>
<path d="M6.96429 6.96429C6.96429 6.1118 7.30293 5.29424 7.90573 4.69144C8.50852 4.08865 9.32609 3.75 10.1786 3.75C11.0311 3.75 11.8486 4.08865 12.4514 4.69144C13.0542 5.29424 13.3929 6.1118 13.3929 6.96429C13.3929 7.81677 13.0542 8.63433 12.4514 9.23713C11.8486 9.83992 11.0311 10.1786 10.1786 10.1786C9.32609 10.1786 8.50852 9.83992 7.90573 9.23713C7.30293 8.63433 6.96429 7.81677 6.96429 6.96429ZM17.8591 9.51L17.9266 9.56143C18.6085 10.0669 19.4627 10.2821 20.3026 10.1601C21.1426 10.0381 21.9003 9.58882 22.4102 8.91027C22.9202 8.23172 23.141 7.37901 23.0246 6.53823C22.9081 5.69745 22.4638 4.93686 21.7887 4.42245C21.1135 3.90803 20.2623 3.68156 19.4207 3.79246C18.5792 3.90335 17.8157 4.34261 17.2969 5.01436C16.778 5.68612 16.5459 6.53584 16.6512 7.37809C16.7566 8.22033 17.1908 8.98672 17.8591 9.51ZM12.2164 11.7857C12.4183 11.4035 12.6952 11.0659 13.0305 10.7931C13.3659 10.5204 13.7528 10.3181 14.1681 10.1983C14.5835 10.0785 15.0187 10.0438 15.4478 10.0961C15.8769 10.1484 16.291 10.2867 16.6654 10.5028C17.0398 10.7189 17.3667 11.0082 17.6267 11.3536C17.8867 11.6989 18.0743 12.0932 18.1784 12.5127C18.2825 12.9323 18.3009 13.3685 18.2325 13.7953C18.1641 14.2221 18.0103 14.6308 17.7804 14.9968C17.3379 15.7009 16.6398 16.2062 15.8327 16.4064C15.0256 16.6067 14.1723 16.4863 13.452 16.0707C12.7318 15.655 12.2007 14.9764 11.9703 14.1773C11.7399 13.3783 11.8281 12.5211 12.2164 11.7857ZM6.16071 11.7857H10.4518C10.1662 12.6014 10.104 13.4787 10.2719 14.3266C10.4398 15.1744 10.8315 15.9618 11.4064 16.6071H10.9821C10.1536 16.607 9.34519 16.863 8.66767 17.34C7.99016 17.817 7.47661 18.4917 7.19732 19.2718C6.65786 19.0551 6.15276 18.7611 5.69786 18.3991C4.48929 17.4268 3.75 15.99 3.75 14.1964C3.75 13.5571 4.00399 12.9439 4.45608 12.4918C4.90818 12.0397 5.52135 11.7857 6.16071 11.7857ZM19.0179 16.6071C19.8462 16.6071 20.6543 16.8631 21.3316 17.3401C22.0088 17.8171 22.5221 18.4918 22.8011 19.2718C23.3475 19.0484 23.8538 18.7575 24.3021 18.3991C25.5107 17.4268 26.25 15.99 26.25 14.1964C26.25 13.5571 25.996 12.9439 25.5439 12.4918C25.0918 12.0397 24.4786 11.7857 23.8393 11.7857H19.5482C19.725 12.2887 19.8214 12.8304 19.8214 13.3929C19.8229 14.5791 19.3856 15.724 18.5936 16.6071H19.0179ZM21.247 19.7057C21.3643 19.9886 21.4286 20.3004 21.4286 20.625C21.4286 22.4186 20.6909 23.8554 19.4807 24.8277C18.2898 25.7839 16.6923 26.25 15 26.25C13.3077 26.25 11.7102 25.7839 10.5193 24.8277C9.31071 23.8554 8.57143 22.4186 8.57143 20.625C8.57058 20.3082 8.63236 19.9943 8.75321 19.7015C8.87405 19.4086 9.05159 19.1425 9.27562 18.9185C9.49964 18.6945 9.76574 18.5169 10.0586 18.3961C10.3515 18.2752 10.6653 18.2134 10.9821 18.2143H19.0179C19.4953 18.2142 19.9621 18.3559 20.359 18.6214C20.7558 18.8869 21.0649 19.2643 21.247 19.7057Z" fill="#00AD57"/>
</svg>
