<svg width="30" height="30" viewBox="0 0 30 30" fill="none" xmlns="http://www.w3.org/2000/svg">
<rect width="30" height="30" rx="5" fill="#BDE7CE"/>
<path d="M8.42857 8.42857C8.42857 7.78447 8.68444 7.16676 9.13988 6.71131C9.59533 6.25587 10.213 6 10.8571 6C11.5012 6 12.119 6.25587 12.5744 6.71131C13.0298 7.16676 13.2857 7.78447 13.2857 8.42857C13.2857 9.07267 13.0298 9.69039 12.5744 10.1458C12.119 10.6013 11.5012 10.8571 10.8571 10.8571C10.213 10.8571 9.59533 10.6013 9.13988 10.1458C8.68444 9.69039 8.42857 9.07267 8.42857 8.42857ZM16.6602 10.352L16.7112 10.3909C17.2264 10.7728 17.8718 10.9354 18.5064 10.8432C19.1411 10.751 19.7135 10.4116 20.0988 9.89887C20.4841 9.38619 20.651 8.74192 20.563 8.10666C20.475 7.47141 20.1394 6.89674 19.6292 6.50807C19.1191 6.1194 18.4759 5.94829 17.8401 6.03208C17.2043 6.11586 16.6274 6.44775 16.2354 6.9553C15.8434 7.46285 15.668 8.10486 15.7476 8.74122C15.8272 9.37758 16.1553 9.95663 16.6602 10.352ZM12.3969 12.0714C12.5494 11.7826 12.7586 11.5276 13.0119 11.3215C13.2653 11.1154 13.5577 10.9625 13.8715 10.872C14.1853 10.7815 14.5141 10.7553 14.8383 10.7948C15.1625 10.8343 15.4754 10.9389 15.7583 11.1021C16.0412 11.2654 16.2882 11.484 16.4846 11.7449C16.681 12.0059 16.8228 12.3037 16.9015 12.6207C16.9801 12.9377 16.994 13.2673 16.9423 13.5898C16.8907 13.9123 16.7745 14.221 16.6007 14.4976C16.2664 15.0296 15.739 15.4113 15.1292 15.5626C14.5193 15.7139 13.8746 15.623 13.3304 15.3089C12.7862 14.9949 12.385 14.4821 12.2109 13.8784C12.0368 13.2747 12.1034 12.627 12.3969 12.0714ZM7.82143 12.0714H11.0636C10.8478 12.6877 10.8008 13.3506 10.9277 13.9912C11.0545 14.6317 11.3505 15.2267 11.7849 15.7143H11.4643C10.8382 15.7142 10.2275 15.9076 9.71557 16.268C9.20367 16.6284 8.81566 17.1382 8.60464 17.7276C8.19705 17.5638 7.81542 17.3417 7.47171 17.0682C6.55857 16.3336 6 15.248 6 13.8929C6 13.4098 6.1919 12.9465 6.53348 12.6049C6.87507 12.2633 7.33836 12.0714 7.82143 12.0714ZM17.5357 15.7143C18.1616 15.7143 18.7722 15.9077 19.2839 16.2681C19.7956 16.6285 20.1833 17.1383 20.3941 17.7276C20.807 17.5588 21.1895 17.339 21.5283 17.0682C22.4414 16.3336 23 15.248 23 13.8929C23 13.4098 22.8081 12.9465 22.4665 12.6049C22.1249 12.2633 21.6616 12.0714 21.1786 12.0714H17.9364C18.07 12.4515 18.1429 12.8607 18.1429 13.2857C18.144 14.182 17.8135 15.047 17.2151 15.7143H17.5357ZM19.2199 18.0554C19.3086 18.2691 19.3571 18.5047 19.3571 18.75C19.3571 20.1051 18.7998 21.1907 17.8854 21.9254C16.9856 22.6479 15.7786 23 14.5 23C13.2214 23 12.0144 22.6479 11.1146 21.9254C10.2014 21.1907 9.64286 20.1051 9.64286 18.75C9.64222 18.5106 9.68889 18.2735 9.7802 18.0522C9.87151 17.8309 10.0056 17.6299 10.1749 17.4606C10.3442 17.2914 10.5452 17.1572 10.7665 17.0659C10.9878 16.9746 11.2249 16.9279 11.4643 16.9286H17.5357C17.8965 16.9285 18.2492 17.0355 18.549 17.2362C18.8488 17.4368 19.0824 17.7219 19.2199 18.0554Z" fill="#00AD57"/>
</svg>
