<svg width="30" height="30" viewBox="0 0 30 30" fill="none" xmlns="http://www.w3.org/2000/svg">
<rect width="30" height="30" rx="5" fill="#BDE7CE"/>
<path d="M12.8027 6C11.7574 6 10.809 6.10816 10.1511 6.27283C9.82018 6.35516 9.56188 6.45484 9.41659 6.54121C9.36413 6.57269 9.34798 6.58883 9.33184 6.60538C9.34798 6.62193 9.36413 6.63807 9.41659 6.66955C9.56188 6.75592 9.82018 6.85561 10.1511 6.93794C10.809 7.1026 11.7574 7.21076 12.8027 7.21076C13.848 7.21076 14.7964 7.1026 15.4543 6.93794C15.7852 6.85561 16.0435 6.75592 16.1888 6.66955C16.2413 6.63807 16.2574 6.62193 16.2735 6.60538C16.2574 6.58883 16.2413 6.57269 16.1888 6.54121C16.0435 6.45484 15.7852 6.35516 15.4543 6.27283C14.7964 6.10816 13.848 6 12.8027 6ZM9.29148 7.4178V9.03498C9.55381 9.16816 9.89686 9.30135 10.1511 9.36592C10.809 9.53139 11.7574 9.64036 12.8027 9.64036C13.848 9.64036 14.7964 9.53139 15.4543 9.36592C15.9386 9.24888 15.9951 9.23677 16.3139 9.03498V7.4178C16.1161 7.50498 15.8901 7.57803 15.6318 7.6426C14.8852 7.82865 13.8964 7.93722 12.8027 7.93722C11.709 7.93722 10.7202 7.82865 9.97354 7.6426C9.71525 7.57803 9.48924 7.50498 9.29148 7.4178ZM9.63856 9.97937C9.30359 10.0964 8.97265 10.3063 8.70224 10.5767C8.27363 11.0004 8 11.5695 8 12.0942V14.6771C8 14.8789 8.08879 15.0525 8.31722 15.2502C8.54484 15.4439 8.91211 15.6336 9.36413 15.787C10.2762 16.0897 11.5395 16.2511 12.8027 16.2511C14.0619 16.2511 15.3291 16.0897 16.2413 15.787C16.6933 15.6336 17.0605 15.4439 17.2865 15.2502C17.5166 15.0525 17.6054 14.8789 17.6054 14.6771V12.0942C17.6054 11.5695 17.3309 11.0004 16.9031 10.5767C16.6327 10.3063 16.3058 10.0964 15.9668 9.97937C15.8619 10.0117 15.7489 10.0439 15.6318 10.0722C14.8852 10.2578 13.8964 10.3668 12.8027 10.3668C11.709 10.3668 10.7202 10.2578 9.97354 10.0722C9.8565 10.0439 9.7435 10.0117 9.63856 9.97937ZM8 15.9242V18.5516C8 18.7534 8.08879 18.9269 8.31722 19.1247C8.54484 19.3184 8.91211 19.5081 9.36413 19.6614C10.2762 19.9641 11.5395 20.1256 12.8027 20.1256C14.0619 20.1256 15.3291 19.9641 16.2413 19.6614C16.6933 19.5081 17.0605 19.3184 17.2865 19.1247C17.5166 18.9269 17.6054 18.7534 17.6054 18.5516V15.9242C17.2906 16.1502 16.9072 16.3278 16.4673 16.4731C15.4422 16.8161 14.1224 16.9776 12.8027 16.9776C11.4789 16.9776 10.1632 16.8161 9.13812 16.4731C8.69821 16.3278 8.31278 16.1502 8 15.9242ZM8 19.7987V22.426C8 22.6278 8.08879 22.8013 8.31722 22.9991C8.54484 23.1928 8.91211 23.3825 9.36413 23.5359C10.2762 23.8386 11.5395 24 12.8027 24C13.509 24 14.2233 23.9475 14.8691 23.8507C14.7399 23.6691 14.6592 23.4632 14.6592 23.2291C14.6592 22.7529 14.9942 22.3776 15.4139 22.1435C15.6682 21.9982 15.9709 21.8973 16.3018 21.8368C16.3906 21.4776 16.6812 21.191 17.0242 20.9973C17.1978 20.9004 17.3955 20.8197 17.6054 20.7592V19.7987C17.2906 20.0247 16.9072 20.2022 16.4673 20.3475C15.4422 20.6906 14.1224 20.852 12.8027 20.852C11.4789 20.852 10.1632 20.6906 9.13812 20.3475C8.69821 20.2022 8.31278 20.0247 8 19.7987ZM18.57 21.3605C18.0897 21.3605 17.6578 21.4735 17.3794 21.6309C17.2865 21.6834 17.2179 21.7359 17.1614 21.7843C17.67 21.8126 18.1381 21.9377 18.5054 22.1435C18.7556 22.2848 18.9776 22.4744 19.1108 22.7045C19.2318 22.4018 19.4901 22.1556 19.7969 21.9861C19.8776 21.9417 19.9623 21.9013 20.0511 21.861C19.9906 21.7883 19.8978 21.7076 19.7605 21.6309C19.4821 21.4735 19.0502 21.3605 18.57 21.3605ZM21.3426 22.3493C20.8623 22.3493 20.4305 22.4623 20.152 22.6197C19.8695 22.7771 19.7686 22.9466 19.7686 23.0717C19.7686 23.1969 19.8695 23.3664 20.152 23.5238C20.4305 23.6812 20.8623 23.7942 21.3426 23.7942C21.8229 23.7942 22.2547 23.6812 22.5332 23.5238C22.8157 23.3664 22.9166 23.1969 22.9166 23.0717C22.9166 22.9466 22.8157 22.7771 22.5332 22.6197C22.2547 22.4623 21.8229 22.3493 21.3426 22.3493ZM16.9596 22.5067C16.4794 22.5067 16.0475 22.6197 15.7691 22.7771C15.4865 22.9345 15.3857 23.104 15.3857 23.2291C15.3857 23.3543 15.4865 23.5238 15.7691 23.6812C16.0475 23.8386 16.4794 23.9516 16.9596 23.9516C17.4399 23.9516 17.8717 23.8386 18.1502 23.6812C18.4327 23.5238 18.5336 23.3543 18.5336 23.2291C18.5336 23.104 18.4327 22.9345 18.1502 22.7771C17.8717 22.6197 17.4399 22.5067 16.9596 22.5067Z" fill="#00AD57"/>
</svg>
