<svg width="30" height="30" viewBox="0 0 30 30" fill="none" xmlns="http://www.w3.org/2000/svg">
<rect width="30" height="30" rx="5" fill="#BDE7CE"/>
<path d="M15 16.1495C14.2044 16.1495 13.4413 16.4656 12.8787 17.0282C12.3161 17.5908 12 18.3539 12 19.1495C12 19.9452 12.3161 20.7083 12.8787 21.2709C13.4413 21.8335 14.2044 22.1496 15 22.1496C15.7957 22.1496 16.5587 21.8335 17.1214 21.2709C17.684 20.7083 18 19.9452 18 19.1495C18 18.3539 17.684 17.5908 17.1214 17.0282C16.5587 16.4656 15.7957 16.1495 15 16.1495ZM13.7143 19.1495C13.7143 18.8085 13.8498 18.4815 14.0909 18.2404C14.332 17.9993 14.659 17.8638 15 17.8638C15.341 17.8638 15.668 17.9993 15.9092 18.2404C16.1503 18.4815 16.2857 18.8085 16.2857 19.1495C16.2857 19.4905 16.1503 19.8176 15.9092 20.0587C15.668 20.2998 15.341 20.4353 15 20.4353C14.659 20.4353 14.332 20.2998 14.0909 20.0587C13.8498 19.8176 13.7143 19.4905 13.7143 19.1495Z" fill="#00AD57"/>
<path d="M19.7367 9.82031L17.0118 6L6.99258 14.004L6.43715 13.998V14.0066H6V24.2924H24.0001V14.0066H23.1755L21.535 9.20745L19.7367 9.82031ZM21.3644 14.0066H12.7689L19.1709 11.8243L20.4755 11.4069L21.3644 14.0066ZM18.0429 10.398L11.4343 12.6506L16.6681 8.46944L18.0429 10.398ZM7.7143 21.0087V17.2886C8.07592 17.1605 8.40439 16.9533 8.67576 16.682C8.94712 16.4108 9.15453 16.0825 9.28288 15.7209H20.7172C20.8455 16.0826 21.0529 16.4111 21.3243 16.6825C21.5956 16.9538 21.9241 17.1612 22.2858 17.2895V21.0095C21.9241 21.1378 21.5956 21.3452 21.3243 21.6166C21.0529 21.8879 20.8455 22.2164 20.7172 22.5781H9.28459C9.15618 22.2161 8.94856 21.8874 8.67689 21.6158C8.40522 21.3443 8.07636 21.1369 7.7143 21.0087Z" fill="#00AD57"/>
</svg>
