<svg width="30" height="30" viewBox="0 0 30 30" fill="none" xmlns="http://www.w3.org/2000/svg">
<g clip-path="url(#clip0_107_70)">
<rect width="30" height="30" rx="5" fill="#BDE7CE"/>
<path d="M22.2 10.4C22.4122 10.4 22.6157 10.4843 22.7657 10.6343C22.9157 10.7843 23 10.9878 23 11.2C23 11.4122 22.9157 11.6157 22.7657 11.7657C22.6157 11.9157 22.4122 12 22.2 12V20C22.4122 20 22.6157 20.0843 22.7657 20.2343C22.9157 20.3843 23 20.5878 23 20.8C23 21.0122 22.9157 21.2157 22.7657 21.3657C22.6157 21.5157 22.4122 21.6 22.2 21.6H7.8C7.58783 21.6 7.38434 21.5157 7.23431 21.3657C7.08429 21.2157 7 21.0122 7 20.8C7 20.5878 7.08429 20.3843 7.23431 20.2343C7.38434 20.0843 7.58783 20 7.8 20V12C7.58783 12 7.38434 11.9157 7.23431 11.7657C7.08429 11.6157 7 11.4122 7 11.2C7 10.9878 7.08429 10.7843 7.23431 10.6343C7.38434 10.4843 7.58783 10.4 7.8 10.4H22.2ZM11 13.6C10.7878 13.6 10.5843 13.6843 10.4343 13.8343C10.2843 13.9843 10.2 14.1878 10.2 14.4V20H11.8V14.4C11.8 14.1878 11.7157 13.9843 11.5657 13.8343C11.4157 13.6843 11.2122 13.6 11 13.6ZM15 13.6C14.7878 13.6 14.5843 13.6843 14.4343 13.8343C14.2843 13.9843 14.2 14.1878 14.2 14.4V20H15.8V14.4C15.8 14.1878 15.7157 13.9843 15.5657 13.8343C15.4157 13.6843 15.2122 13.6 15 13.6ZM19 13.6C18.7878 13.6 18.5843 13.6843 18.4343 13.8343C18.2843 13.9843 18.2 14.1878 18.2 14.4V20H19.8V14.4C19.8 14.1878 19.7157 13.9843 19.5657 13.8343C19.4157 13.6843 19.2122 13.6 19 13.6ZM19.8 8C20.0122 8 20.2157 8.08429 20.3657 8.23431C20.5157 8.38434 20.6 8.58783 20.6 8.8C20.6 9.01217 20.5157 9.21566 20.3657 9.36569C20.2157 9.51571 20.0122 9.6 19.8 9.6H10.2C9.98783 9.6 9.78434 9.51571 9.63431 9.36569C9.48429 9.21566 9.4 9.01217 9.4 8.8C9.4 8.58783 9.48429 8.38434 9.63431 8.23431C9.78434 8.08429 9.98783 8 10.2 8H19.8Z" fill="#00AD57"/>
</g>
<defs>
<clipPath id="clip0_107_70">
<rect width="30" height="30" rx="5" fill="white"/>
</clipPath>
</defs>
</svg>
