<svg width="54" height="54" viewBox="0 0 54 54" fill="none" xmlns="http://www.w3.org/2000/svg">
<g filter="url(#filter0_d_17_884)">
<path d="M22.1287 17.1756C23.2675 15.7973 24.9916 14.916 26.9213 14.916C28.8509 14.916 30.575 15.7973 31.7138 17.1756C32.4636 18.0847 32.9395 19.1882 33.0859 20.3574C33.2323 21.5267 33.0432 22.7134 32.5406 23.7793C32.0381 24.8451 31.2429 25.7461 30.2477 26.3772C29.2526 27.0082 28.0985 27.3433 26.9201 27.3433C25.7418 27.3433 24.5877 27.0082 23.5925 26.3772C22.5973 25.7461 21.8021 24.8451 21.2996 23.7793C20.7971 22.7134 20.608 21.5267 20.7544 20.3574C20.9008 19.1882 21.3766 18.0847 22.1264 17.1756M35.3925 21.1299C35.3925 19.7018 35.04 18.3551 34.4163 17.1756H43.8682C44.7671 17.1756 45.6292 17.5327 46.2648 18.1683C46.9005 18.804 47.2576 19.6661 47.2576 20.565V21.6948C47.2576 25.2808 44.5325 28.9526 39.767 30.2451C39.2773 29.3654 38.5614 28.6325 37.6933 28.1224C36.8253 27.6123 35.8366 27.3435 34.8298 27.3438H32.6832C33.5397 26.5513 34.2227 25.5901 34.6894 24.5207C35.1561 23.4512 35.3962 22.2967 35.3947 21.1299M34.8298 29.6033C35.2753 29.6021 35.7165 29.689 36.1283 29.8589C36.54 30.0288 36.9142 30.2784 37.2291 30.5934C37.5441 30.9084 37.7937 31.2825 37.9636 31.6943C38.1335 32.106 38.2204 32.5473 38.2192 32.9927V34.1225C38.2192 38.5762 34.0164 43.1609 26.9213 43.1609C19.8261 43.1609 15.6233 38.5762 15.6233 34.1225V32.9927C15.6221 32.5473 15.709 32.106 15.8789 31.6943C16.0488 31.2825 16.2984 30.9084 16.6134 30.5934C16.9284 30.2784 17.3025 30.0288 17.7142 29.8589C18.126 29.689 18.5673 29.6021 19.0127 29.6033H34.8298ZM6.58496 21.6948C6.58496 25.2808 9.31002 28.9526 14.0755 30.2451C14.5652 29.3654 15.2812 28.6325 16.1492 28.1224C17.0173 27.6123 18.0059 27.3435 19.0127 27.3438H21.1593C20.3028 26.5513 19.6198 25.5901 19.1531 24.5207C18.6864 23.4512 18.4463 22.2967 18.4478 21.1299C18.4478 19.7018 18.8003 18.3551 19.4262 17.1756H9.97434C9.07542 17.1756 8.21332 17.5327 7.57769 18.1683C6.94206 18.804 6.58496 19.6661 6.58496 20.565V21.6948ZM24.0968 8.70215C24.0968 7.05413 23.4421 5.47361 22.2768 4.30828C21.1114 3.14295 19.5309 2.48828 17.8829 2.48828C16.2349 2.48828 14.6544 3.14295 13.489 4.30828C12.3237 5.47361 11.669 7.05413 11.669 8.70215C11.669 10.3502 12.3237 11.9307 13.489 13.096C14.6544 14.2613 16.2349 14.916 17.8829 14.916C19.5309 14.916 21.1114 14.2613 22.2768 13.096C23.4421 11.9307 24.0968 10.3502 24.0968 8.70215ZM42.1735 8.70215C42.1735 7.05413 41.5188 5.47361 40.3535 4.30828C39.1882 3.14295 37.6076 2.48828 35.9596 2.48828C34.3116 2.48828 32.7311 3.14295 31.5657 4.30828C30.4004 5.47361 29.7457 7.05413 29.7457 8.70215C29.7457 10.3502 30.4004 11.9307 31.5657 13.096C32.7311 14.2613 34.3116 14.916 35.9596 14.916C37.6076 14.916 39.1882 14.2613 40.3535 13.096C41.5188 11.9307 42.1735 10.3502 42.1735 8.70215Z" fill="#349F0E"/>
</g>
<defs>
<filter id="filter0_d_17_884" x="0.325195" y="0.228516" width="53.1914" height="53.1914" filterUnits="userSpaceOnUse" color-interpolation-filters="sRGB">
<feFlood flood-opacity="0" result="BackgroundImageFix"/>
<feColorMatrix in="SourceAlpha" type="matrix" values="0 0 0 0 0 0 0 0 0 0 0 0 0 0 0 0 0 0 127 0" result="hardAlpha"/>
<feOffset dy="4"/>
<feGaussianBlur stdDeviation="2"/>
<feComposite in2="hardAlpha" operator="out"/>
<feColorMatrix type="matrix" values="0 0 0 0 0 0 0 0 0 0 0 0 0 0 0 0 0 0 0.15 0"/>
<feBlend mode="normal" in2="BackgroundImageFix" result="effect1_dropShadow_17_884"/>
<feBlend mode="normal" in="SourceGraphic" in2="effect1_dropShadow_17_884" result="shape"/>
</filter>
</defs>
</svg>
