<svg width="43" height="47" viewBox="0 0 43 47" fill="none" xmlns="http://www.w3.org/2000/svg">
<g filter="url(#filter0_d_17_877)">
<path d="M28.5155 24.2929L21.4481 31.3588L14.3807 24.2929C9.0851 24.5225 4.85547 28.8559 4.85547 34.2033C4.85547 35.3468 5.30975 36.4436 6.11838 37.2522C6.92701 38.0608 8.02375 38.5151 9.16732 38.5151H33.7288C34.8724 38.5151 35.9691 38.0608 36.7777 37.2522C37.5864 36.4436 38.0407 35.3468 38.0407 34.2033C38.0407 28.8559 33.811 24.5225 28.5155 24.2929ZM21.4481 23.1077C23.9627 23.1077 26.3744 22.1088 28.1525 20.3306C29.9306 18.5525 30.9295 16.1409 30.9295 13.6262V5.46474C30.9301 4.98178 30.7832 4.51016 30.5084 4.11302C30.2335 3.71587 29.844 3.41215 29.3918 3.24251L23.1125 0.890661C22.0394 0.488269 20.8568 0.488269 19.7836 0.890661L13.5044 3.24548C13.0526 3.41494 12.6634 3.7182 12.3886 4.11476C12.1138 4.51132 11.9666 4.98228 11.9666 5.46474V13.6262C11.9666 16.1409 12.9655 18.5525 14.7436 20.3306C16.5218 22.1088 18.9334 23.1077 21.4481 23.1077ZM18.4851 5.89807C18.4851 5.79984 18.5241 5.70564 18.5936 5.63618C18.663 5.56672 18.7572 5.5277 18.8555 5.5277H20.4607V3.92251C20.4607 3.82429 20.4997 3.73008 20.5691 3.66062C20.6386 3.59116 20.7328 3.55214 20.831 3.55214H22.0651C22.1633 3.55214 22.2575 3.59116 22.327 3.66062C22.3965 3.73008 22.4355 3.82429 22.4355 3.92251V5.5277H24.0407C24.1389 5.5277 24.2331 5.56672 24.3025 5.63618C24.372 5.70564 24.411 5.79984 24.411 5.89807V7.13214C24.411 7.23037 24.372 7.32458 24.3025 7.39403C24.2331 7.46349 24.1389 7.50251 24.0407 7.50251H22.4355V9.1077C22.4355 9.20593 22.3965 9.30013 22.327 9.36959C22.2575 9.43905 22.1633 9.47807 22.0651 9.47807H20.831C20.7328 9.47807 20.6386 9.43905 20.5691 9.36959C20.4997 9.30013 20.4607 9.20593 20.4607 9.1077V7.50251H18.8555C18.7572 7.50251 18.663 7.46349 18.5936 7.39403C18.5241 7.32458 18.4851 7.23037 18.4851 7.13214V5.89807ZM15.5221 12.441H27.374V13.6262C27.374 15.1979 26.7497 16.7052 25.6383 17.8165C24.527 18.9278 23.0197 19.5521 21.4481 19.5521C19.8764 19.5521 18.3691 18.9278 17.2578 17.8165C16.1465 16.7052 15.5221 15.1979 15.5221 13.6262V12.441Z" fill="#8C63C0"/>
</g>
<defs>
<filter id="filter0_d_17_877" x="0.855469" y="0.588867" width="41.1855" height="45.9258" filterUnits="userSpaceOnUse" color-interpolation-filters="sRGB">
<feFlood flood-opacity="0" result="BackgroundImageFix"/>
<feColorMatrix in="SourceAlpha" type="matrix" values="0 0 0 0 0 0 0 0 0 0 0 0 0 0 0 0 0 0 127 0" result="hardAlpha"/>
<feOffset dy="4"/>
<feGaussianBlur stdDeviation="2"/>
<feComposite in2="hardAlpha" operator="out"/>
<feColorMatrix type="matrix" values="0 0 0 0 0 0 0 0 0 0 0 0 0 0 0 0 0 0 0.15 0"/>
<feBlend mode="normal" in2="BackgroundImageFix" result="effect1_dropShadow_17_877"/>
<feBlend mode="normal" in="SourceGraphic" in2="effect1_dropShadow_17_877" result="shape"/>
</filter>
</defs>
</svg>
