<svg width="30" height="30" viewBox="0 0 30 30" fill="none" xmlns="http://www.w3.org/2000/svg">
<rect width="30" height="30" rx="5" fill="#BDE7CE"/>
<path d="M11.4375 17.6016V16.7422H12.4196V17.6016H11.4375Z" fill="#00AD57"/>
<path fill-rule="evenodd" clip-rule="evenodd" d="M12.9107 6C12.52 6 12.1453 6.13581 11.869 6.37756C11.5927 6.6193 11.4375 6.94718 11.4375 7.28906H9.47321C9.08249 7.28906 8.70778 7.42487 8.43149 7.66662C8.15521 7.90837 8 8.23624 8 8.57812V21.8984C8 22.2403 8.15521 22.5682 8.43149 22.8099C8.70778 23.0517 9.08249 23.1875 9.47321 23.1875H20.2768C20.6675 23.1875 21.0422 23.0517 21.3185 22.8099C21.5948 22.5682 21.75 22.2403 21.75 21.8984V8.57812C21.75 8.23624 21.5948 7.90837 21.3185 7.66662C21.0422 7.42487 20.6675 7.28906 20.2768 7.28906H18.3125C18.3125 6.94718 18.1573 6.6193 17.881 6.37756C17.6047 6.13581 17.23 6 16.8393 6H12.9107ZM12.4196 7.28906C12.4196 7.1751 12.4714 7.06581 12.5635 6.98523C12.6556 6.90465 12.7805 6.85938 12.9107 6.85938H16.8393C16.9695 6.85938 17.0944 6.90465 17.1865 6.98523C17.2786 7.06581 17.3304 7.1751 17.3304 7.28906V8.14844C17.3304 8.2624 17.2786 8.37169 17.1865 8.45227C17.0944 8.53285 16.9695 8.57812 16.8393 8.57812H12.9107C12.7805 8.57812 12.6556 8.53285 12.5635 8.45227C12.4714 8.37169 12.4196 8.2624 12.4196 8.14844V7.28906ZM10.9464 12.875C10.8162 12.875 10.6913 12.9203 10.5992 13.0009C10.5071 13.0814 10.4554 13.1907 10.4554 13.3047C10.4554 13.4186 10.5071 13.5279 10.5992 13.6085C10.6913 13.6891 10.8162 13.7344 10.9464 13.7344H14.3839C14.5142 13.7344 14.6391 13.6891 14.7312 13.6085C14.8233 13.5279 14.875 13.4186 14.875 13.3047C14.875 13.1907 14.8233 13.0814 14.7312 13.0009C14.6391 12.9203 14.5142 12.875 14.3839 12.875H10.9464ZM10.4554 11.1562C10.4554 11.0423 10.5071 10.933 10.5992 10.8524C10.6913 10.7718 10.8162 10.7266 10.9464 10.7266H18.558C18.6883 10.7266 18.8132 10.7718 18.9053 10.8524C18.9974 10.933 19.0491 11.0423 19.0491 11.1562C19.0491 11.2702 18.9974 11.3795 18.9053 11.4601C18.8132 11.5407 18.6883 11.5859 18.558 11.5859H10.9464C10.8162 11.5859 10.6913 11.5407 10.5992 11.4601C10.5071 11.3795 10.4554 11.2702 10.4554 11.1562ZM10.4554 16.3125C10.4554 16.1985 10.5071 16.0892 10.5992 16.0087C10.6913 15.9281 10.8162 15.8828 10.9464 15.8828H12.9107C13.041 15.8828 13.1659 15.9281 13.258 16.0087C13.35 16.0892 13.4018 16.1985 13.4018 16.3125V18.0312C13.4018 18.1452 13.35 18.2545 13.258 18.3351C13.1659 18.4157 13.041 18.4609 12.9107 18.4609H10.9464C10.8162 18.4609 10.6913 18.4157 10.5992 18.3351C10.5071 18.2545 10.4554 18.1452 10.4554 18.0312V16.3125ZM16.8393 18.0312C17.23 18.0312 17.6047 17.8954 17.881 17.6537C18.1573 17.4119 18.3125 17.0841 18.3125 16.7422C18.3125 16.4003 18.1573 16.0724 17.881 15.8307C17.6047 15.5889 17.23 15.4531 16.8393 15.4531C16.4486 15.4531 16.0738 15.5889 15.7976 15.8307C15.5213 16.0724 15.3661 16.4003 15.3661 16.7422C15.3661 17.0841 15.5213 17.4119 15.7976 17.6537C16.0738 17.8954 16.4486 18.0312 16.8393 18.0312ZM13.8929 19.9648C13.8929 19.0556 15.8557 18.5976 16.8393 18.5976C17.8229 18.5976 19.7857 19.0556 19.7857 19.9648V21.0391H13.8929V19.9648Z" fill="#00AD57"/>
</svg>
