<svg width="30" height="30" viewBox="0 0 30 30" fill="none" xmlns="http://www.w3.org/2000/svg">
<rect width="30" height="30" rx="5" fill="#BDE7CE"/>
<path d="M11.25 17.9688V17.1562H12.1786V17.9688H11.25Z" fill="#00AD57"/>
<path fill-rule="evenodd" clip-rule="evenodd" d="M12.6429 7C12.2734 7 11.9192 7.1284 11.658 7.35696C11.3967 7.58552 11.25 7.89552 11.25 8.21875H9.39286C9.02345 8.21875 8.66917 8.34715 8.40796 8.57571C8.14675 8.80427 8 9.11427 8 9.4375V22.0312C8 22.3545 8.14675 22.6645 8.40796 22.893C8.66917 23.1216 9.02345 23.25 9.39286 23.25H19.6071C19.9766 23.25 20.3308 23.1216 20.592 22.893C20.8533 22.6645 21 22.3545 21 22.0312V9.4375C21 9.11427 20.8533 8.80427 20.592 8.57571C20.3308 8.34715 19.9766 8.21875 19.6071 8.21875H17.75C17.75 7.89552 17.6033 7.58552 17.342 7.35696C17.0808 7.1284 16.7266 7 16.3571 7H12.6429ZM12.1786 8.21875C12.1786 8.11101 12.2275 8.00767 12.3146 7.93149C12.4016 7.8553 12.5197 7.8125 12.6429 7.8125H16.3571C16.4803 7.8125 16.5984 7.8553 16.6854 7.93149C16.7725 8.00767 16.8214 8.11101 16.8214 8.21875V9.03125C16.8214 9.13899 16.7725 9.24233 16.6854 9.31851C16.5984 9.3947 16.4803 9.4375 16.3571 9.4375H12.6429C12.5197 9.4375 12.4016 9.3947 12.3146 9.31851C12.2275 9.24233 12.1786 9.13899 12.1786 9.03125V8.21875ZM10.7857 13.5C10.6626 13.5 10.5445 13.5428 10.4574 13.619C10.3703 13.6952 10.3214 13.7985 10.3214 13.9062C10.3214 14.014 10.3703 14.1173 10.4574 14.1935C10.5445 14.2697 10.6626 14.3125 10.7857 14.3125H14.0357C14.1589 14.3125 14.2769 14.2697 14.364 14.1935C14.4511 14.1173 14.5 14.014 14.5 13.9062C14.5 13.7985 14.4511 13.6952 14.364 13.619C14.2769 13.5428 14.1589 13.5 14.0357 13.5H10.7857ZM10.3214 11.875C10.3214 11.7673 10.3703 11.6639 10.4574 11.5877C10.5445 11.5116 10.6626 11.4688 10.7857 11.4688H17.9821C18.1053 11.4688 18.2234 11.5116 18.3104 11.5877C18.3975 11.6639 18.4464 11.7673 18.4464 11.875C18.4464 11.9827 18.3975 12.0861 18.3104 12.1623C18.2234 12.2384 18.1053 12.2812 17.9821 12.2812H10.7857C10.6626 12.2812 10.5445 12.2384 10.4574 12.1623C10.3703 12.0861 10.3214 11.9827 10.3214 11.875ZM10.3214 16.75C10.3214 16.6423 10.3703 16.5389 10.4574 16.4627C10.5445 16.3866 10.6626 16.3438 10.7857 16.3438H12.6429C12.766 16.3438 12.8841 16.3866 12.9712 16.4627C13.0582 16.5389 13.1071 16.6423 13.1071 16.75V18.375C13.1071 18.4827 13.0582 18.5861 12.9712 18.6623C12.8841 18.7384 12.766 18.7812 12.6429 18.7812H10.7857C10.6626 18.7812 10.5445 18.7384 10.4574 18.6623C10.3703 18.5861 10.3214 18.4827 10.3214 18.375V16.75ZM16.3571 18.375C16.7266 18.375 17.0808 18.2466 17.342 18.018C17.6033 17.7895 17.75 17.4795 17.75 17.1562C17.75 16.833 17.6033 16.523 17.342 16.2945C17.0808 16.0659 16.7266 15.9375 16.3571 15.9375C15.9877 15.9375 15.6335 16.0659 15.3722 16.2945C15.111 16.523 14.9643 16.833 14.9643 17.1562C14.9643 17.4795 15.111 17.7895 15.3722 18.018C15.6335 18.2466 15.9877 18.375 16.3571 18.375ZM13.5714 20.2031C13.5714 19.3435 15.4272 18.9104 16.3571 18.9104C17.2871 18.9104 19.1429 19.3435 19.1429 20.2031V21.2188H13.5714V20.2031Z" fill="#00AD57"/>
</svg>
