<svg width="31" height="31" viewBox="0 0 31 31" fill="none" xmlns="http://www.w3.org/2000/svg">
<rect x="0.213867" width="29.9886" height="29.9886" rx="5.08411" transform="rotate(0.408781 0.213867 0)" fill="#BDE7CE"/>
<path fill-rule="evenodd" clip-rule="evenodd" d="M15.1634 6.35442C13.7999 6.34469 12.1287 6.83134 11.1418 7.16688C10.6605 7.33061 10.4163 7.85028 10.5717 8.33393L11.5929 11.51C11.3171 12.1003 11.1941 12.7504 11.2352 13.4007C11.2763 14.0509 11.4802 14.6804 11.8281 15.2312C12.176 15.7821 12.6568 16.2367 13.2263 16.5532C13.7957 16.8698 14.4356 17.0381 15.0871 17.0427C15.7387 17.0474 16.3809 16.8882 16.9548 16.5798C17.5288 16.2715 18.016 15.8238 18.3717 15.2779C18.7274 14.7321 18.9403 14.1056 18.9906 13.456C19.041 12.8064 18.9273 12.1546 18.66 11.5604L19.7263 8.39973C19.8887 7.91786 19.6519 7.39476 19.173 7.22467C18.1905 6.8741 16.5269 6.36414 15.1634 6.35442ZM12.3895 12.3724C14.2204 11.6357 16.0309 11.6486 17.8512 12.4114C17.8802 12.4237 17.9108 12.4327 17.9413 12.4392C18.0505 12.8711 18.0592 13.3222 17.9669 13.758C17.8745 14.1938 17.6835 14.6026 17.4086 14.9531C17.1336 15.3036 16.782 15.5864 16.3808 15.7798C15.9795 15.9733 15.5393 16.0722 15.0938 16.069C14.6484 16.0658 14.2096 15.9606 13.8112 15.7615C13.4127 15.5623 13.0652 15.2745 12.7953 14.9202C12.5254 14.5658 12.3402 14.1543 12.2541 13.7173C12.168 13.2802 12.1831 12.8292 12.2984 12.399C12.3296 12.393 12.3601 12.3841 12.3895 12.3724ZM15.632 8.78745L16.6038 8.79438L16.5969 9.76621L15.625 9.75928L15.6181 10.7311L14.6463 10.7242L14.6532 9.75234L13.6814 9.74541L13.6883 8.77358L14.6602 8.78052L14.6671 7.80869L15.6389 7.81562L15.632 8.78745Z" fill="#00AD57"/>
<path fill-rule="evenodd" clip-rule="evenodd" d="M14.5139 19.0779L11.6276 17.0198C11.6276 17.0198 6.32906 18.6308 6.31493 20.6104L6.29228 23.7849L23.7852 23.9097L23.8078 20.7352C23.8219 18.7556 18.5475 17.0692 18.5475 17.0692L15.631 19.0859C15.4667 19.1995 15.2713 19.2597 15.0715 19.2583C14.8717 19.2569 14.6767 19.1939 14.5139 19.0779ZM18.9607 19.0159L19.9325 19.0228L19.9256 19.9946L20.8974 20.0016L20.8905 20.9734L19.9187 20.9665L19.9117 21.9383L18.9399 21.9314L18.9468 20.9595L17.975 20.9526L17.9819 19.9808L18.9538 19.9877L18.9607 19.0159Z" fill="#00AD57"/>
</svg>
