<svg width="27" height="28" viewBox="0 0 27 28" fill="none" xmlns="http://www.w3.org/2000/svg">
<rect width="27" height="28" rx="3" fill="#BDE7CE"/>
<path d="M13.5 14.5833C12.4557 14.5833 11.4542 15.0135 10.7158 15.7793C9.97734 16.545 9.5625 17.5836 9.5625 18.6666C9.5625 19.7496 9.97734 20.7882 10.7158 21.554C11.4542 22.3197 12.4557 22.7499 13.5 22.7499C14.5443 22.7499 15.5458 22.3197 16.2842 21.554C17.0227 20.7882 17.4375 19.7496 17.4375 18.6666C17.4375 17.5836 17.0227 16.545 16.2842 15.7793C15.5458 15.0135 14.5443 14.5833 13.5 14.5833ZM11.8125 18.6666C11.8125 18.2025 11.9903 17.7574 12.3068 17.4292C12.6232 17.101 13.0524 16.9166 13.5 16.9166C13.9476 16.9166 14.3768 17.101 14.6932 17.4292C15.0097 17.7574 15.1875 18.2025 15.1875 18.6666C15.1875 19.1307 15.0097 19.5759 14.6932 19.9041C14.3768 20.2322 13.9476 20.4166 13.5 20.4166C13.0524 20.4166 12.6232 20.2322 12.3068 19.9041C11.9903 19.5759 11.8125 19.1307 11.8125 18.6666Z" fill="#00AD57"/>
<path d="M19.7168 5.9686L16.1404 0.768768L2.99025 11.6631L2.26125 11.6549V11.6666H1.6875V25.6666H25.3125V11.6666H24.2303L22.077 5.13444L19.7168 5.9686ZM21.8531 11.6666H10.5716L18.9743 8.69627L20.6865 8.1281L21.8531 11.6666ZM17.4938 6.75494L8.82 9.82094L15.6893 4.12994L17.4938 6.75494ZM3.9375 21.1971V16.1338C4.41213 15.9593 4.84325 15.6773 5.19941 15.3081C5.55557 14.939 5.8278 14.4921 5.99625 13.9999H21.0038C21.1721 14.4922 21.4443 14.9393 21.8005 15.3087C22.1566 15.678 22.5878 15.9603 23.0625 16.1349V21.1983C22.5878 21.3729 22.1566 21.6552 21.8005 22.0245C21.4443 22.3939 21.1721 22.841 21.0038 23.3333H5.9985C5.82996 22.8406 5.55746 22.3931 5.2009 22.0235C4.84433 21.654 4.4127 21.3716 3.9375 21.1971Z" fill="#00AD57"/>
</svg>
