<svg width="30" height="30" viewBox="0 0 30 30" fill="none" xmlns="http://www.w3.org/2000/svg">
<rect width="30" height="30" rx="6.25" fill="#BDE7CE"/>
<path d="M21.907 16.8372C21.907 16.6707 21.8408 16.511 21.7231 16.3932C21.6053 16.2755 21.4456 16.2093 21.2791 16.2093H18.7674C18.6009 16.2093 18.4412 16.2755 18.3234 16.3932C18.2057 16.511 18.1395 16.6707 18.1395 16.8372V22.4884H16.8837V8.88372C16.8837 8.27423 16.882 7.87907 16.8435 7.5894C16.8067 7.3173 16.7473 7.23191 16.6995 7.18419C16.6518 7.13647 16.5664 7.07702 16.2943 7.04019C16.0038 7.00167 15.6095 7 15 7C14.3905 7 13.9953 7.00167 13.7057 7.04019C13.4336 7.07702 13.3482 7.13647 13.3005 7.18419C13.2527 7.23191 13.1933 7.3173 13.1565 7.5894C13.118 7.87991 13.1163 8.27423 13.1163 8.88372V22.4884H11.8605V12.6512C11.8605 12.4846 11.7943 12.3249 11.6766 12.2072C11.5588 12.0894 11.3991 12.0233 11.2326 12.0233H8.72093C8.5544 12.0233 8.39469 12.0894 8.27693 12.2072C8.15918 12.3249 8.09302 12.4846 8.09302 12.6512V22.4884H6.62791C6.46138 22.4884 6.30167 22.5545 6.18391 22.6723C6.06615 22.79 6 22.9497 6 23.1163C6 23.2828 6.06615 23.4425 6.18391 23.5603C6.30167 23.678 6.46138 23.7442 6.62791 23.7442H23.3721C23.5386 23.7442 23.6983 23.678 23.8161 23.5603C23.9338 23.4425 24 23.2828 24 23.1163C24 22.9497 23.9338 22.79 23.8161 22.6723C23.6983 22.5545 23.5386 22.4884 23.3721 22.4884H21.907V16.8372Z" fill="#00AD57"/>
</svg>
