<svg width="30" height="30" viewBox="0 0 30 30" fill="none" xmlns="http://www.w3.org/2000/svg">
<rect width="30" height="30" rx="5" fill="#BDE7CE"/>
<path d="M6 22V19.375C6 18.8438 6.1275 18.3553 6.3825 17.9097C6.6375 17.4641 6.99 17.1244 7.44 16.8906C8.34 16.4219 9.2736 16.0625 10.2408 15.8125C11.208 15.5625 12.1944 15.4375 13.2 15.4375C13.575 15.4375 13.95 15.465 14.325 15.52C14.7 15.575 15.075 15.6413 15.45 15.7188V17.1953C14.775 17.5391 14.2311 17.9922 13.8183 18.5547C13.4055 19.1172 13.1994 19.8516 13.2 20.7578V22H6ZM15 22V20.6875C15 20.3125 15.0939 19.9647 15.2817 19.6441C15.4695 19.3234 15.7356 19.0931 16.08 18.9531C16.62 18.7188 17.1789 18.5428 17.7567 18.4253C18.3345 18.3078 18.9156 18.2494 19.5 18.25C20.085 18.25 20.6664 18.3088 21.2442 18.4262C21.822 18.5437 22.3806 18.7194 22.92 18.9531C23.265 19.0938 23.5314 19.3244 23.7192 19.645C23.907 19.9656 24.0006 20.3131 24 20.6875V22H15ZM19.5 17.3125C18.87 17.3125 18.3375 17.0859 17.9025 16.6328C17.4675 16.1797 17.25 15.625 17.25 14.9688C17.25 14.3125 17.4675 13.7578 17.9025 13.3047C18.3375 12.8516 18.87 12.625 19.5 12.625C20.13 12.625 20.6625 12.8516 21.0975 13.3047C21.5325 13.7578 21.75 14.3125 21.75 14.9688C21.75 15.625 21.5325 16.1797 21.0975 16.6328C20.6625 17.0859 20.13 17.3125 19.5 17.3125ZM13.2 14.5C12.21 14.5 11.3625 14.1328 10.6575 13.3984C9.9525 12.6641 9.6 11.7812 9.6 10.75C9.6 9.71875 9.9525 8.83594 10.6575 8.10156C11.3625 7.36719 12.21 7 13.2 7C14.19 7 15.0375 7.36719 15.7425 8.10156C16.4475 8.83594 16.8 9.71875 16.8 10.75C16.8 11.7812 16.4475 12.6641 15.7425 13.3984C15.0375 14.1328 14.19 14.5 13.2 14.5Z" fill="#00AD57"/>
</svg>
