<svg width="26" height="26" viewBox="0 0 26 26" fill="none" xmlns="http://www.w3.org/2000/svg">
<g id="ph:tree-structure-fill" clip-path="url(#clip0_30_63)">
<g id="Vector" filter="url(#filter0_d_30_63)">
<path d="M10.625 10.0937L11.6875 10.0937L11.6875 9.5625C11.6875 9.28071 11.5756 9.01046 11.3763 8.8112C11.177 8.61194 10.9068 8.5 10.625 8.5L6.375 8.5C6.09321 8.5 5.82296 8.61194 5.6237 8.8112C5.42444 9.01046 5.3125 9.28071 5.3125 9.5625L5.3125 10.0937L6.375 10.0937C6.65679 10.0937 6.92704 10.2057 7.1263 10.4049C7.32556 10.6042 7.4375 10.8745 7.4375 11.1562L7.4375 14.3437C7.4375 14.6255 7.32556 14.8958 7.1263 15.0951C6.92704 15.2943 6.65679 15.4062 6.375 15.4062L3.1875 15.4062C2.90571 15.4062 2.63546 15.2943 2.4362 15.0951C2.23694 14.8958 2.125 14.6255 2.125 14.3437L2.125 11.1562C2.125 10.8745 2.23694 10.6042 2.4362 10.4049C2.63546 10.2057 2.90571 10.0937 3.1875 10.0937L4.25 10.0937L4.25 9.5625C4.25 8.99891 4.47388 8.45841 4.8724 8.0599C5.27091 7.66138 5.81141 7.4375 6.375 7.4375L7.96875 7.4375L7.96875 5.3125L7.4375 5.3125C7.15571 5.3125 6.88546 5.20056 6.6862 5.0013C6.48694 4.80204 6.375 4.53179 6.375 4.25L6.375 2.125C6.375 1.84321 6.48694 1.57296 6.6862 1.3737C6.88546 1.17444 7.15571 1.0625 7.4375 1.0625L9.5625 1.0625C9.84429 1.0625 10.1145 1.17444 10.3138 1.3737C10.5131 1.57296 10.625 1.84321 10.625 2.125L10.625 4.25C10.625 4.53179 10.5131 4.80204 10.3138 5.0013C10.1145 5.20056 9.84429 5.3125 9.5625 5.3125L9.03125 5.3125L9.03125 7.4375L10.625 7.4375C11.1886 7.4375 11.7291 7.66138 12.1276 8.0599C12.5261 8.45841 12.75 8.99891 12.75 9.5625L12.75 10.0937L13.8125 10.0937C14.0943 10.0937 14.3645 10.2057 14.5638 10.4049C14.7631 10.6042 14.875 10.8745 14.875 11.1562L14.875 14.3438C14.875 14.6255 14.7631 14.8958 14.5638 15.0951C14.3645 15.2943 14.0943 15.4062 13.8125 15.4062L10.625 15.4062C10.3432 15.4062 10.073 15.2943 9.8737 15.0951C9.67444 14.8958 9.5625 14.6255 9.5625 14.3437L9.5625 11.1562C9.5625 10.8745 9.67444 10.6042 9.8737 10.4049C10.073 10.2057 10.3432 10.0937 10.625 10.0937Z" fill="#0A57B1"/>
</g>
</g>
<defs>
<filter id="filter0_d_30_63" x="-1.875" y="1.0625" width="18.833" height="18.833" filterUnits="userSpaceOnUse" color-interpolation-filters="sRGB">
<feFlood flood-opacity="0" result="BackgroundImageFix"/>
<feColorMatrix in="SourceAlpha" type="matrix" values="0 0 0 0 0 0 0 0 0 0 0 0 0 0 0 0 0 0 127 0" result="hardAlpha"/>
<feOffset dy="4"/>
<feGaussianBlur stdDeviation="2"/>
<feComposite in2="hardAlpha" operator="out"/>
<feColorMatrix type="matrix" values="0 0 0 0 0 0 0 0 0 0 0 0 0 0 0 0 0 0 0.25 0"/>
<feBlend mode="normal" in2="BackgroundImageFix" result="effect1_dropShadow_30_63"/>
<feBlend mode="normal" in="SourceGraphic" in2="effect1_dropShadow_30_63" result="shape"/>
</filter>
<clipPath id="clip0_30_63">
<rect width="26" height="26" fill="white" />
</clipPath>
</defs>
</svg>
