<svg width="26" height="26" viewBox="0 0 26 26" fill="none" xmlns="http://www.w3.org/2000/svg">
<g clip-path="url(#clip0_30_59)">
<g filter="url(#filter0_d_30_59)">
<path d="M17.5497 9.5527H8.88301C8.76808 9.5527 8.65786 9.50082 8.57659 9.40848C8.49533 9.31613 8.44967 9.19088 8.44967 9.06028C8.44967 8.92968 8.49533 8.80443 8.57659 8.71208C8.65786 8.61974 8.76808 8.56786 8.88301 8.56786H16.2497C16.3646 8.56786 16.4748 8.51598 16.5561 8.42363C16.6374 8.33128 16.683 8.20603 16.683 8.07543C16.683 7.94483 16.6374 7.81958 16.5561 7.72724C16.4748 7.63489 16.3646 7.58301 16.2497 7.58301H8.88301C8.53823 7.58301 8.20757 7.73865 7.96377 8.01569C7.71997 8.29273 7.58301 8.66848 7.58301 9.06028V16.9391C7.58301 17.3309 7.71997 17.7066 7.96377 17.9837C8.20757 18.2607 8.53823 18.4163 8.88301 18.4163H17.5497C17.7795 18.4163 18 18.3126 18.1625 18.1279C18.325 17.9432 18.4163 17.6927 18.4163 17.4315V10.5376C18.4163 10.2764 18.325 10.0259 18.1625 9.84116C18 9.65647 17.7795 9.5527 17.5497 9.5527ZM15.5997 14.4769C15.4711 14.4769 15.3454 14.4336 15.2386 14.3525C15.1317 14.2713 15.0483 14.1559 14.9992 14.021C14.95 13.886 14.9371 13.7375 14.9622 13.5942C14.9872 13.4509 15.0492 13.3193 15.1401 13.216C15.231 13.1127 15.3468 13.0424 15.4729 13.0139C15.599 12.9854 15.7296 13 15.8484 13.0559C15.9672 13.1118 16.0687 13.2065 16.1401 13.3279C16.2116 13.4494 16.2497 13.5922 16.2497 13.7383C16.2497 13.9342 16.1812 14.1221 16.0593 14.2606C15.9374 14.3991 15.7721 14.4769 15.5997 14.4769Z" fill="#0EB10A"/>
</g>
</g>
<defs>
<filter id="filter0_d_30_59" x="-1.58301" y="3.58301" width="32.833" height="32.833" filterUnits="userSpaceOnUse" color-interpolation-filters="sRGB">
<feFlood flood-opacity="0" result="BackgroundImageFix"/>
<feColorMatrix in="SourceAlpha" type="matrix" values="0 0 0 0 0 0 0 0 0 0 0 0 0 0 0 0 0 0 127 0" result="hardAlpha"/>
<feOffset dy="4"/>
<feGaussianBlur stdDeviation="2"/>
<feComposite in2="hardAlpha" operator="out"/>
<feColorMatrix type="matrix" values="0 0 0 0 0 0 0 0 0 0 0 0 0 0 0 0 0 0 0.15 0"/>
<feBlend mode="normal" in2="BackgroundImageFix" result="effect1_dropShadow_30_59"/>
<feBlend mode="normal" in="SourceGraphic" in2="effect1_dropShadow_30_59" result="shape"/>
</filter>
<clipPath id="clip0_30_59">
<rect width="80" height="80" fill="white"/>
</clipPath>
</defs>
</svg>
